<svg xmlns="http://www.w3.org/2000/svg" width="512" height="512"><path d="M285.5 15.536c-9.5 5.577-13.757 14.768-17.519 37.828-3.361 20.597-2.141 35.974 3.778 47.617 6.381 12.552 19.064 13.314 26.794 1.61C305.906 91.459 313 63.484 313 45.623c0-16.649-3.658-25.086-12.971-29.918-6.254-3.245-9.229-3.28-14.529-.169m-147.476 1.429c-4.687 1.18-7.025 4.309-7.019 9.396.003 2.276 1.776 10.889 3.94 19.139 9.187 35.021 19.928 60.231 30.085 70.611 3.169 3.239 6.469 5.889 7.333 5.889.863 0 3.85 2.025 6.637 4.5 2.787 2.475 5.745 4.5 6.573 4.5 2.157 0 8.625-3.453 10.639-5.68 5.473-6.053 6.394-19.927 2.354-35.461-8.265-31.772-26.009-61.795-41.509-70.231-5.576-3.035-13.275-4.112-19.033-2.663M413.5 57.421c-5.118 2.291-9.192 7.637-14.922 19.579-4.784 9.971-6.068 11.832-9.659 14-7.944 4.796-19.202 18.968-25.129 31.634-3.628 7.753-3.476 13.219.535 19.281 3.13 4.73 9.763 7.666 15.069 6.671 5.029-.944 12.366-6.252 17.396-12.586a402.136 402.136 0 0 1 9.039-10.891c16.733-19.312 29.736-37.656 33.141-46.757 3.607-9.641 1.044-17.777-6.606-20.973-4.173-1.744-14.928-1.72-18.864.042M48.173 85.484C34.145 89.862 27.74 103 33.871 114.819c7.335 14.142 36.519 36.067 58.678 44.085 11.266 4.077 16.831 4.709 23.748 2.698 13.662-3.972 18.057-14.016 11.86-27.102-7.5-15.835-27.672-34.459-47.642-43.984-13.837-6.6-22.833-7.999-32.342-5.032M245.5 117.115c-19.386 1.82-33.769 5.946-50.635 14.527-13.769 7.006-24.948 15.325-37.365 27.806-15.325 15.405-27.43 34.798-35.299 56.552-4.134 11.43-5.204 18.127-5.184 32.434.057 39.477 7.285 59.496 33.043 91.519 14.817 18.421 28.463 30.736 41.183 37.166 6.26 3.164 15.517 5.881 20.039 5.881 1.573 0 3.524.663 4.334 1.474 4.776 4.776 30.711 6.788 57.884 4.491 37.441-3.165 60.095-13.475 85.259-38.803 10.539-10.607 21.451-26.31 26.184-37.679 3.795-9.117 9.597-31.59 11.13-43.109.624-4.683.938-13.77.698-20.194-.376-10.093-.802-12.45-3.138-17.346-1.531-3.21-3.996-11.997-5.687-20.272-3.386-16.572-5.275-22.756-8.266-27.062-3.415-4.916-24.47-27.635-30.293-32.688-2.972-2.578-9.131-6.939-13.687-9.691-4.556-2.752-9.165-5.977-10.241-7.166-3.315-3.663-9.567-6.607-18.841-8.871-4.885-1.192-11.687-3.48-15.115-5.083-10.368-4.847-23.733-5.976-46.003-3.886M444 179.543c-9.075 2.343-18.133 4.963-20.129 5.822-15.514 6.673-18.807 24.036-6.703 35.337 5.237 4.889 7.47 5.177 33.332 4.293 26.75-.913 32.079-1.931 38.179-7.286 3.682-3.234 8.321-12.041 8.321-15.799 0-3.903-5.417-13.449-10.541-18.577-5.861-5.866-12.395-8.428-20.891-8.192-2.787.077-12.493 2.058-21.568 4.402M61 196.63c-21.587 3.092-36.451 8.55-40.624 14.919-2.338 3.569-1.475 13.472 1.782 20.451 6.717 14.389 22.185 22.933 41.942 23.169 18.828.224 32.466-6.451 38.538-18.861 2.222-4.542 2.722-6.946 2.743-13.182.029-8.48-1.135-11.508-6.545-17.033C91.567 198.671 75.25 194.59 61 196.63m361.421 100.204c-7.227 3.393-10.67 10.806-7.171 15.439 1.812 2.4 32.664 17.097 43.418 20.683 10.622 3.543 19.597 4.738 24.433 3.255 1.869-.573 5.074-1.324 7.121-1.667 2.998-.503 4.046-1.307 5.388-4.135 1.626-3.426 1.6-3.64-1.092-8.962-1.517-2.998-4.301-6.805-6.186-8.461-4.766-4.184-15.584-9.449-28.172-13.711-9.261-3.135-12.169-3.657-22.16-3.982-9.758-.317-12.118-.084-15.579 1.541M69.539 330.112c-18.273 2.662-38.551 13.779-46.675 25.586-3.427 4.98-7.852 16.211-7.86 19.946-.006 3.281 5.089 8.033 10.066 9.388 5.361 1.459 18.15.743 26.81-1.501 19.179-4.97 43.533-20.628 48.257-31.026 4.646-10.227.773-17.908-10.836-21.494-6.918-2.137-10.231-2.287-19.762-.899m62.74 62.436c-9.424 4.697-17.879 16.722-19.048 27.094-.402 3.571-1.573 5.571-6.502 11.107-6.915 7.766-13.653 17.843-16.063 24.021-2.109 5.405-2.142 14.424-.071 18.789 2 4.214 8.855 10.598 14.556 13.555 7.955 4.126 18.427 2.304 24.529-4.267 3.923-4.225 9-13.629 12.859-23.821 2.849-7.523 5.087-11.54 9.01-16.175 9.787-11.562 14.33-20.75 14.407-29.133.16-17.408-18.141-28.912-33.677-21.17m264.221.745c-2.582 1.458-4.989 4.023-6.79 7.233-2.54 4.528-2.755 5.691-2.404 12.974.469 9.715 5.774 24.747 11.999 34 5.981 8.89 19.144 21.523 26.361 25.3 11.397 5.966 27.149 6.235 35.649.61 15.601-10.324 6.042-36.128-24.79-66.922-9.864-9.852-11.709-11.249-17.525-13.26-8.671-2.999-17.12-2.975-22.5.065m-115 15.578c-4.263 2.647-6.965 5.859-9.954 11.831-5.942 11.874-8.828 32.907-6.559 47.798 2.287 15.01 6.981 23.643 15.164 27.888 6.925 3.593 10.665 3.43 14.602-.638 5.769-5.96 8.241-15.148 10.275-38.187 2.891-32.742-2.685-50.57-15.813-50.559-2.854.002-5.899.739-7.715 1.867" fill-rule="evenodd"/></svg>