<svg version="1.1" id="圖層_1" xmlns="http://www.w3.org/2000/svg" xmlns:xlink="http://www.w3.org/1999/xlink" x="0" y="0" viewBox="0 0 744.4 223.4" style="enable-background:new 0 0 744.4 223.4" xml:space="preserve"><style>.st1{stroke:#50bec6}.st1,.st4,.st6{fill:none;stroke-width:.25;stroke-miterlimit:10}.st4{stroke:#cdcdcd}.st6{stroke:#2353a4}</style><defs><path id="SVGID_1_" d="M-2 .5h750V227H-2z"/></defs><clipPath id="SVGID_2_"><use xlink:href="#SVGID_1_" style="overflow:visible"/></clipPath><g style="opacity:.61;clip-path:url(#SVGID_2_)"><path class="st1" d="M775 5.4c-175.5 0-293.7 127-515.2 127C67 132.4-41 97.2-41 97.2"/><path class="st1" d="M775 8C599.1 8 480.3 133.6 259.7 133.4 67.6 133.1-40.3 97.9-41 97.5"/><path class="st1" d="M775 10.7c-176.3 0-295.6 124.2-515.5 123.6-191.3-.5-299-35.6-300.5-36.4"/><path class="st1" d="M775 13.3c-176.7 0-296.6 122.8-515.6 122C68.8 134.6-38.8 99.4-41 98.2"/><path class="st1" d="M775 15.9c-177.1 0-297.5 121.4-515.8 120.3C69.5 135.3-38 100.2-41 98.6"/><path class="st1" d="M775 18.6c-177.5 0-298.5 120-515.9 118.6C70.1 136-37.3 100.9-41 98.9"/><path class="st1" d="M775 21.2c-177.9 0-299.4 118.6-516.1 116.9C70.7 136.7-36.5 101.7-41 99.3"/><path class="st1" d="M775 23.8C596.7 23.8 474.6 141 258.8 139 71.3 137.5-35.8 102.4-41 99.6"/><path class="st1" d="M775 26.5c-178.7 0-301.3 115.8-516.4 113.6C71.9 138.2-35 103.2-41 100"/><path class="st1" d="M775 29.1c-179.1 0-302.3 114.4-516.5 111.9-186-2.1-292.8-37.1-299.5-40.7"/><path class="st1" d="M775 31.7c-179.5 0-303.2 113-516.7 110.2C73.1 139.6-33.5 104.7-41 100.6"/><path class="st1" d="M775 34.4c-179.9 0-304.2 111.6-516.8 108.5C73.7 140.4-32.8 105.4-41 101"/><path class="st1" d="M775 37c-180.3 0-305.1 110.2-517 106.9-183.7-2.8-290-37.7-299-42.6"/><path class="st1" d="M775 39.6c-180.7 0-306.1 108.8-517.1 105.2-183-3-289.2-37.9-298.9-43.1"/><path class="st1" d="M775 42.3c-181.1 0-307 107.4-517.2 103.5C75.5 142.5-30.5 107.7-41 102"/><path class="st1" d="M775 44.9c-181.5 0-308 106-517.4 101.8C76.1 143.3-29.8 108.5-41 102.4"/><path class="st1" d="M775 47.5c-181.9 0-308.9 104.6-517.5 100.1C76.7 144-29.1 109.2-41 102.7"/><path class="st1" d="M775 50.2c-182.3 0-309.9 103.2-517.7 98.5-180-4-285.6-38.7-298.3-45.6"/><path class="st1" d="M775 52.8c-182.7 0-310.8 101.8-517.8 96.8C77.9 145.5-27.6 110.7-41 103.4"/><path class="st1" d="M775 55.4c-183 0-311.8 100.4-518 95.1-178.5-4.4-283.8-39.1-298-46.8"/><path class="st1" d="M775 58.1c-183.4 0-312.7 99-518.1 93.4-177.8-4.6-283-39.3-297.9-47.4"/><path class="st1" d="M775 60.7c-183.8 0-313.7 97.6-518.3 91.7-177-4.8-282-39.5-297.7-48"/><path class="st1" d="M775 63.3c-184.2 0-314.6 96.2-518.4 90.1-176.3-5-281.2-39.7-297.6-48.6"/><path class="st1" d="M775 66c-184.6 0-315.6 94.8-518.6 88.4C80.9 149.1-23.8 114.5-41 105.2"/><path class="st1" d="M775 68.6c-185 0-316.5 93.3-518.7 86.7C81.5 149.8-23.1 115.2-41 105.5"/><path class="st1" d="M775 71.2c-185.4 0-317.5 91.9-518.9 85C82.1 150.5-22.3 116-41 105.9"/><path class="st1" d="M775 73.9c-185.8 0-318.4 90.5-519 83.4-173.2-6-277.6-40.5-297-51"/><path class="st1" d="M775 76.5c-186.2 0-319.4 89.1-519.2 81.7C83.4 152-20.8 117.5-41 106.6"/><path class="st1" d="M775 79.1c-186.6 0-320.3 87.7-519.3 80C84 152.7-20.1 118.3-41 106.9"/><path class="st1" d="M775 81.8c-187 0-321.3 86.3-519.5 78.3C84.6 153.4-19.4 119-41 107.3"/><path class="st1" d="M775 84.4c-187.4 0-322.2 84.9-519.6 76.6-170.2-6.9-274-41.3-296.4-53.4"/><path class="st1" d="M775 87c-187.8 0-323.2 83.5-519.8 75C85.8 154.9-17.9 120.5-41 108"/><path class="st1" d="M775 89.7c-188.2 0-324.1 82.1-519.9 73.3C86.4 155.6-17.1 121.3-41 108.3"/><path class="st1" d="M775 92.3c-188.6 0-325.1 80.7-520.1 71.6C87 156.3-16.4 122-41 108.7"/><path class="st1" d="M775 94.9c-189 0-326 79.3-520.2 69.9C87.6 157.1-15.6 122.8-41 109"/><path class="st1" d="M775 97.6c-189.4 0-327 77.9-520.4 68.2-166.4-8-269.5-42.3-295.6-56.4"/><path class="st1" d="M775 100.2c-189.8 0-327.9 76.5-520.5 66.6C88.8 158.5-14.1 124.3-41 109.7"/><path class="st1" d="M775 102.8c-190.2 0-328.9 75.1-520.7 64.9C89.4 159.2-13.4 125-41 110.1"/><path class="st1" d="M775 105.5c-190.6 0-329.8 73.7-520.8 63.2C90 160-12.6 125.8-41 110.4"/><path class="st1" d="M775 108.1c-191 0-330.8 72.3-521 61.5-163.4-9-265.9-43.1-295-58.9"/><path class="st1" d="M775 110.7c-191.4 0-331.7 70.9-521.1 59.9-162.7-9.2-265-43.3-294.9-59.5"/><path class="st1" d="M775 113.4c-191.8 0-332.7 69.5-521.2 58.2C91.8 162.1-10.4 128-41 111.5"/><path class="st1" d="M775 116c-192.2 0-333.6 68.1-521.4 56.5C92.4 162.9-9.6 128.8-41 111.8"/><path class="st1" d="M775 118.6c-192.6 0-334.6 66.7-521.5 54.8C93 163.6-8.9 129.6-41 112.2"/><path class="st1" d="M775 121.3c-193 0-335.5 65.3-521.7 53.1C93.6 164.3-8.2 130.3-41 112.5"/><path class="st1" d="M775 123.9c-193.4 0-336.4 63.9-521.8 51.5C94.2 165-7.4 131.1-41 112.9"/><path class="st1" d="M775 126.5c-193.8 0-337.4 62.5-522 49.8C94.8 165.8-6.7 131.8-41 113.2"/><path class="st1" d="M775 129.2c-194.2 0-338.3 61.1-522.1 48.1C95.4 166.5-5.9 132.6-41 113.6"/><path class="st1" d="M775 131.8c-194.6 0-339.3 59.7-522.3 46.4C96 167.2-5.2 133.3-41 113.9"/><path class="st1" d="M775 134.4c-195 0-340.2 58.3-522.4 44.7-155.9-11.2-257-45-293.6-64.8"/><path class="st1" d="M775 137.1c-195.4 0-341.2 56.9-522.6 43.1C97.3 168.7-3.7 134.8-41 114.6"/><path class="st1" d="M775 139.7c-195.8 0-342.1 55.5-522.7 41.4C97.9 169.4-2.9 135.6-41 115"/><path class="st1" d="M775 142.3c-196.2 0-343.1 54.1-522.9 39.7C98.5 170.1-2.2 136.3-41 115.3"/><path class="st1" d="M775 145c-196.6 0-344 52.7-523 38C99.1 170.8-1.4 137.1-41 115.7"/><path class="st1" d="M775 147.6c-197 0-345 51.3-523.2 36.3C99.7 171.6-.7 137.8-41 116"/><path class="st1" d="M775 150.2c-197.4 0-345.9 49.9-523.3 34.7C100.3 172.3.1 138.6-41 116.3"/><path class="st1" d="M775 152.9c-197.8 0-346.9 48.5-523.5 33C100.9 173 .8 139.3-41 116.7"/><path class="st1" d="M775 155.5c-198.2 0-347.8 47.1-523.6 31.3C101.5 173.7 1.5 140.1-41 117"/><path class="st1" d="M775 158.2c-198.6 0-348.8 45.7-523.8 29.6-149.1-13.3-248.9-47-292.2-70.4"/><path class="st1" d="M775 160.8c-199 0-349.7 44.3-523.9 28C102.7 175.2 3 141.6-41 117.7"/><path class="st1" d="M775 163.4c-199.4 0-350.7 42.9-524.1 26.3C103.3 175.9 3.8 142.4-41 118.1"/><path class="st1" d="M775 166.1c-199.8 0-351.6 41.5-524.2 24.6C103.9 176.6 4.5 143.1-41 118.4"/><path class="st1" d="M775 168.7c-200.2 0-352.6 40.1-524.4 22.9C104.5 177.4 5.3 143.9-41 118.8"/><path class="st1" d="M775 171.3c-200.6 0-353.5 38.7-524.5 21.2C105.1 178.1 6 144.6-41 119.1"/><path class="st1" d="M775 174c-201 0-354.5 37.3-524.7 19.6C105.7 178.8 6.8 145.4-41 119.5"/><path class="st1" d="M775 176.6c-201.3 0-355.4 35.9-524.8 17.9-143.9-15-242.7-48.4-291.2-74.7"/><path class="st1" d="M775 179.2c-201.7 0-356.4 34.5-525 16.2-143.1-15.1-241.7-48.5-291-75.2"/><path class="st1" d="M775 181.9c-202.1 0-357.3 33.1-525.1 14.5C107.5 181 9 147.6-41 120.5"/><path class="st1" d="M775 184.5c-202.5 0-358.3 31.7-525.3 12.8-141.6-15.6-240-49-290.7-76.4"/><path class="st1" d="M775 187.1c-202.9 0-359.2 30.3-525.4 11.2C108.7 182.4 10.5 149.1-41 121.2"/><path class="st1" d="M775 189.8c-203.3 0-360.2 28.8-525.5 9.5C109.3 183.2 11.3 149.9-41 121.6"/><path class="st1" d="M775 192.4c-203.7 0-361.1 27.4-525.7 7.8C110 183.9 12 150.6-41 121.9"/><path class="st1" d="M775 195c-204.1 0-362.1 26-525.8 6.1C110.6 184.6 12.7 151.4-41 122.3"/><path class="st1" d="M775 197.7c-204.5 0-363 24.6-526 4.5-137.8-16.8-235.5-50-290-79.5"/><path class="st1" d="M775 200.3c-204.9 0-364 23.2-526.1 2.8C111.8 186.1 14.2 152.9-41 123"/><path class="st1" d="M775 202.9c-205.3 0-364.9 21.8-526.3 1.1C112.4 186.8 15 153.7-41 123.3"/><path class="st1" d="M775 205.6c-205.7 0-365.9 20.4-526.4-.6C113 187.5 15.7 154.4-41 123.7"/><path class="st1" d="M775 208.2c-206.1 0-366.8 19-526.6-2.3C113.6 188.2 16.5 155.2-41 124"/><path class="st1" d="M775 210.8c-206.5 0-367.8 17.6-526.7-3.9-134.1-17.9-231-51-289.3-82.5"/><path class="st1" d="M775 213.5c-206.9 0-368.7 16.2-526.9-5.6C114.8 189.7 18 156.7-41 124.7"/><path class="st1" d="M775 216.1c-207.3 0-369.7 14.8-527-7.3-132.6-18.4-229.2-51.4-289-83.7"/><path class="st1" d="M775 218.7c-207.7 0-370.6 13.4-527.2-9C116 191.1 19.5 158.2-41 125.4"/><path class="st1" d="M775 221.4c-208.1 0-371.6 12-527.3-10.7C116.6 191.9 20.2 158.9-41 125.8"/><path class="st1" d="M775 224c-208.5 0-372.5 10.6-527.5-12.3C117.2 192.6 21 159.7-41 126.1"/><path class="st1" d="M775 226.6c-208.9 0-373.5 9.2-527.6-14C117.8 193.3 21.7 160.4-41 126.5"/><path class="st1" d="M775 229.3c-209.3 0-374.4 7.8-527.8-15.7C118.4 194 22.5 161.2-41 126.8"/><path class="st1" d="M775 231.9c-209.7 0-375.4 6.4-527.9-17.4C119 194.8 23.2 161.9-41 127.2"/><path class="st1" d="M775 234.5c-210.1 0-376.3 5-528.1-19-127.3-20-223-52.8-287.9-88"/><path class="st1" d="M775 237.2c-210.5 0-377.3 3.6-528.2-20.7-126.5-20.2-222.1-53-287.8-88.6"/><path class="st1" d="M775 239.8c-210.9 0-378.2 2.2-528.4-22.4C120.8 196.9 25.4 164.2-41 128.2"/><path class="st1" d="M775 242.4c-211.3 0-379.2.8-528.5-24.1C121.4 197.7 26.2 165-41 128.6"/><path class="st1" d="M775 245.1c-211.7 0-380.1-.6-528.7-25.8C122 198.4 26.9 165.7-41 128.9"/><path class="st1" d="M775 247.7c-212.1 0-381.1-2-528.8-27.4-123.5-21.1-218.5-53.8-287.2-91"/><path class="st1" d="M775 250.3c-212.5 0-382-3.4-529-29.1-122.8-21.4-217.6-54-287-91.6"/><path class="st1" d="M775 253c-212.9 0-383-4.8-529.1-30.8C123.9 200.6 29.2 168-41 130"/><path class="st1" d="M775 255.6c-213.3 0-383.9-6.2-529.3-32.5C124.5 201.3 29.9 168.7-41 130.3"/><path class="st1" d="M775 258.2c-213.7 0-384.9-7.6-529.4-34.2C125.1 202 30.7 169.5-41 130.7"/><path class="st1" d="M775 260.9c-214.1 0-385.8-9-529.5-35.8-119.8-22.3-214-54.8-286.4-94"/><path class="st1" d="M775 263.5c-214.5 0-386.8-10.4-529.7-37.5-119-22.5-213.1-55-286.3-94.6"/><path class="st1" d="M775 266.1c-214.9 0-387.7-11.8-529.8-39.2C126.9 204.2 32.9 171.7-41 131.7"/><path class="st1" d="M775 268.8c-215.3 0-388.7-13.2-530-40.9-117.5-23-211.3-55.4-286-95.8"/><path class="st1" d="M775 271.4c-394.9 0-649.9-49-816-139"/></g><g style="clip-path:url(#SVGID_2_)"><path class="st1" d="M-41 45.5c148.9 0 427.9 115 620.7 115S866.5 103 866.5 103"/><path class="st1" d="M-41 47.7c150 0 428.3 113.7 620.8 113.4 192-.2 286.1-57.5 286.7-57.8"/><path class="st1" d="M-41 49.9c151.1 0 428.7 112.4 620.8 111.7 191.3-.5 285.3-57.4 286.7-58.2"/><path class="st1" d="M-41 52.1c152.2 0 429.1 111.1 620.9 110.1 190.5-.7 284.5-57.4 286.6-58.5"/><path class="st1" d="M-41 54.2c153.3 0 429.4 109.8 621 108.5 189.8-.9 283.7-57.4 286.5-58.9"/><path class="st1" d="M-41 56.4c154.4 0 429.8 108.5 621.1 106.9 189-1.1 283-57.3 286.4-59.2"/><path class="st1" d="M-41 58.6c155.5 0 430.2 107.1 621.1 105.2 188.3-1.4 282.2-57.3 286.4-59.5"/><path class="st1" d="M-41 60.8c156.5 0 430.6 105.8 621.2 103.6 187.5-1.6 281.4-57.3 286.3-59.9"/><path class="st1" d="M-41 63c157.6 0 431 104.5 621.3 102 186.8-1.8 280.7-57.2 286.2-60.2"/><path class="st1" d="M-41 65.2c158.7 0 431.4 103.2 621.4 100.4 186-2.1 279.9-57.2 286.1-60.6"/><path class="st1" d="M-41 67.4c159.8 0 431.8 101.5 621.5 98.7 185.3-2.7 279.1-57.2 286-60.9"/><path class="st1" d="M-41 69.6c160.9 0 432.2 100.2 621.5 97.1 184.5-3 278.4-57.1 286-61.2"/><path class="st1" d="M-41 71.8c162 0 432.6 98.8 621.6 95.5 183.7-3.2 277.6-57.1 285.9-61.6"/><path class="st1" d="M-41 73.9c163.1 0 432.9 97.5 621.7 93.9 183-3.5 276.8-57.1 285.8-61.9"/><path class="st1" d="M-41 76.1c164.2 0 433.3 96.1 621.8 92.2 182.2-3.7 276.1-57 285.7-62.3"/><path class="st1" d="M-41 78.3c165.3 0 433.7 94.8 621.9 90.6 181.5-4 275.3-57 285.6-62.6"/><path class="st1" d="M-41 80.5c166.4 0 434.1 93.4 621.9 89 180.7-4.3 274.5-57 285.6-62.9"/><path class="st1" d="M-41 82.7c167.5 0 434.5 92.1 622 87.4 180-4.5 273.7-56.9 285.5-63.3"/><path class="st1" d="M-41 84.9c168.6 0 434.9 90.7 622.1 85.7 179.2-4.8 273-56.9 285.4-63.6"/><path class="st1" d="M-41 87.1c169.7 0 435.3 89.4 622.2 84.1 178.5-5.1 272.2-56.9 285.3-64"/><path class="st1" d="M-41 89.3c170.7 0 435.7 88.1 622.3 82.5 177.7-5.3 271.4-56.8 285.2-64.3"/><path class="st1" d="M-41 91.4c171.8 0 436 86.7 622.3 80.9 177-5.6 270.7-56.8 285.2-64.6"/><path class="st1" d="M-41 93.6c172.9 0 436.4 85.4 622.4 79.2 176.2-5.8 269.9-56.7 285.1-65"/><path class="st1" d="M-41 95.8c174 0 436.8 84 622.5 77.6 175.4-6.1 269.1-56.7 285-65.3"/><path class="st1" d="M-41 98c175.1 0 437.2 82.7 622.6 76 174.7-6.3 268.4-56.7 284.9-65.7"/><path class="st1" d="M-41 100.2c176.2 0 437.6 81.4 622.7 74.4 173.9-6.6 267.6-56.6 284.8-66"/><path class="st1" d="M-41 102.4c177.3 0 438 80 622.7 72.7 173.2-6.8 266.8-56.6 284.8-66.3"/><path class="st1" d="M-41 104.6c178.4 0 438.4 78.7 622.8 71.1 172.4-7.1 266-56.6 284.7-66.7"/><path class="st1" d="M-41 106.8c179.5 0 438.8 77.4 622.9 69.5 171.7-7.3 265.3-56.5 284.6-67"/><path class="st1" d="M-41 109c180.6 0 439.1 76 623 67.9 170.9-7.6 264.5-56.5 284.5-67.4"/><path class="st1" d="M-41 111.1c181.7 0 439.5 74.7 623 66.2 170.2-7.8 263.7-56.5 284.5-67.7"/><path class="st1" d="M-41 113.3c182.8 0 439.9 73.4 623.1 64.6 169.4-8.1 263-56.4 284.4-68"/><path class="st1" d="M-41 115.5c183.9 0 440.3 72 623.2 63 168.6-8.3 262.2-56.4 284.3-68.4"/><path class="st1" d="M-41 117.7c184.9 0 440.7 70.7 623.3 61.4 167.9-8.6 261.4-56.4 284.2-68.7"/><path class="st1" d="M-41 119.9c186 0 441.1 69.4 623.4 59.7 167.1-8.8 260.7-56.3 284.1-69.1"/><path class="st1" d="M-41 122.1c187.1 0 441.5 68 623.4 58.1 166.4-9.1 259.9-56.3 284.1-69.4"/><path class="st1" d="M-41 124.3c188.2 0 441.8 66.7 623.5 56.5 165.6-9.3 259.1-56.3 284-69.7"/><path class="st1" d="M-41 126.5c189.3 0 442.2 65.4 623.6 54.9 164.9-9.6 258.4-56.2 283.9-70.1"/><path class="st1" d="M-41 128.6c190.4 0 442.6 64.1 623.7 53.2 164.1-9.8 257.6-56.2 283.8-70.4"/><path class="st1" d="M-41 130.8c191.5 0 443 62.7 623.8 51.6 163.4-10.1 256.8-56.2 283.7-70.8"/><path class="st1" d="M-41 133c192.6 0 443.4 61.4 623.8 50 162.6-10.3 256-56.1 283.7-71.1"/><path class="st1" d="M-41 135.2c193.7 0 443.8 60.1 623.9 48.4 161.8-10.5 255.3-56.1 283.6-71.4"/><path class="st1" d="M-41 137.4c194.8 0 444.2 58.8 624 46.7 161.1-10.8 254.5-56.1 283.5-71.8"/><path class="st1" d="M-41 139.6c195.9 0 444.6 57.4 624.1 45.1 160.3-11 253.7-56 283.4-72.1"/><path class="st1" d="M-41 141.8c197 0 444.9 56.1 624.2 43.5 159.6-11.2 253-56 283.3-72.5"/><path class="st1" d="M-41 144c198.1 0 445.3 54.8 624.2 41.9 158.8-11.5 252.2-56 283.3-72.8"/><path class="st1" d="M-41 146.1c199.1 0 445.7 53.5 624.3 40.2 158.1-11.7 251.4-55.9 283.2-73.1"/><path class="st1" d="M-41 148.3c200.2 0 446.1 52.2 624.4 38.6 157.3-12 250.7-55.9 283.1-73.5"/><path class="st1" d="M-41 150.5c201.3 0 446.5 50.8 624.5 37 156.6-12.2 249.9-55.9 283-73.8"/><path class="st1" d="M-41 152.7c202.4 0 446.9 49.5 624.6 35.3 155.8-12.4 249.1-55.8 282.9-74.1"/><path class="st1" d="M-41 154.9c203.5 0 447.3 48.2 624.6 33.7 155-12.7 248.3-55.8 282.9-74.5"/><path class="st1" d="M-41 157.1c204.6 0 447.6 46.9 624.7 32.1 154.3-12.9 247.6-55.8 282.8-74.8"/><path class="st1" d="M-41 159.3c205.7 0 448 45.6 624.8 30.5 153.5-13.1 246.8-55.7 282.7-75.2"/><path class="st1" d="M-41 161.5c206.8 0 448.4 44.3 624.9 28.8 152.8-13.3 246-55.7 282.6-75.5"/><path class="st1" d="M-41 163.7c207.9 0 448.8 42.9 625 27.2 152-13.6 245.3-55.7 282.5-75.8"/><path class="st1" d="M-41 165.8c209 0 449.2 41.6 625 25.6 151.3-13.8 244.5-55.6 282.5-76.2"/><path class="st1" d="M-41 168c210.1 0 449.6 40.3 625.1 24 150.5-14 243.7-55.6 282.4-76.5"/><path class="st1" d="M-41 170.2c211.2 0 450 39 625.2 22.3 149.8-14.3 243-55.6 282.3-76.9"/><path class="st1" d="M-41 172.4c212.3 0 450.4 37.7 625.3 20.7 149-14.5 242.2-55.5 282.2-77.2"/><path class="st1" d="M-41 174.6c213.3 0 450.7 36.4 625.3 19.1 148.2-14.7 241.4-55.5 282.2-77.5"/><path class="st1" d="M-41 176.8c214.4 0 451.1 35.1 625.4 17.5 147.5-14.9 240.7-55.4 282.1-77.9"/><path class="st1" d="M-41 179c215.5 0 451.5 33.8 625.5 15.8 146.7-15.1 239.9-55.4 282-78.2"/><path class="st1" d="M-41 181.2c216.6 0 451.9 32.5 625.6 14.2 146-15.4 239.1-55.4 281.9-78.6"/><path class="st1" d="M-41 183.3c217.7 0 452.3 31.2 625.7 12.6C729.9 180.4 823 140.6 866.5 117"/><path class="st1" d="M-41 185.5c218.8 0 452.7 29.9 625.7 11 144.5-15.8 237.6-55.3 281.8-79.2"/><path class="st1" d="M-41 187.7c219.9 0 453.1 28.6 625.8 9.3 143.7-16 236.8-55.3 281.7-79.6"/><path class="st1" d="M-41 189.9c221 0 453.5 27.3 625.9 7.7 143-16.2 236-55.2 281.6-79.9"/><path class="st1" d="M-41 192.1c222.1 0 453.8 26 626 6.1 142.2-16.4 235.3-55.2 281.5-80.3"/><path class="st1" d="M-41 194.3c223.2 0 454.2 24.7 626.1 4.5 141.5-16.7 234.5-55.2 281.4-80.6"/><path class="st1" d="M-41 196.5c224.3 0 454.6 23.4 626.1 2.8 140.7-16.9 233.7-55.1 281.4-80.9"/><path class="st1" d="M-41 198.7c225.4 0 455 22.1 626.2 1.2 140-17.1 233-55.1 281.3-81.3"/><path class="st1" d="M-41 200.9c226.5 0 455.4 20.8 626.3-.4 139.2-17.3 232.2-55.1 281.2-81.6"/><path class="st1" d="M-41 203c227.5 0 455.8 19.5 626.4-2 138.4-17.5 231.4-55 281.1-82"/><path class="st1" d="M-41 205.2c228.6 0 456.2 18.2 626.5-3.7 137.7-17.7 230.6-55 281-82.3"/><path class="st1" d="M-41 207.4c229.7 0 456.6 17 626.5-5.3 136.9-17.9 229.9-55 281-82.6"/><path class="st1" d="M-41 209.6c230.8 0 457 15.7 626.6-6.9 136.2-18.1 229.1-54.9 280.9-83"/><path class="st1" d="M-41 211.8c231.9 0 457.3 14.4 626.7-8.5C721.1 185 814 148.4 866.5 120"/><path class="st1" d="M-41 214c233 0 457.7 13.1 626.8-10.2 134.7-18.5 227.6-54.9 280.7-83.7"/><path class="st1" d="M-41 216.2c234.1 0 458.1 11.8 626.9-11.8 133.9-18.7 226.8-54.8 280.6-84"/><path class="st1" d="M-41 218.4c235.2 0 458.5 10.5 626.9-13.4 133.2-19 226-54.8 280.6-84.3"/><path class="st1" d="M-41 220.5c236.3 0 458.9 9.3 627-15 132.4-19.2 225.3-54.8 280.5-84.7"/><path class="st1" d="M-41 222.7c237.4 0 459.3 8 627.1-16.7 131.7-19.4 224.5-54.7 280.4-85"/><path class="st1" d="M-41 224.9c238.5 0 459.7 6.7 627.2-18.3 130.9-19.6 223.7-54.7 280.3-85.4"/><path class="st1" d="M-41 227.1c239.6 0 460.1 5.4 627.2-19.9 130.2-19.8 223-54.7 280.3-85.7"/><path class="st1" d="M-41 229.3c240.7 0 460.5 4.2 627.3-21.5 129.4-20 222.2-54.6 280.2-86"/><path class="st1" d="M-41 231.5c241.7 0 460.9 2.9 627.4-23.2 128.7-20.1 221.4-54.6 280.1-86.4"/><path class="st1" d="M-41 233.7c242.8 0 461.3 1.6 627.5-24.8 127.9-20.3 220.6-54.6 280-86.7"/><path class="st1" d="M-41 235.9c243.9 0 461.7.4 627.6-26.4C713.8 189 806.5 155 866.5 122.4"/><path class="st1" d="M-41 238c245 0 462.1-.9 627.6-28 126.4-20.7 219.1-54.5 279.9-87.4"/><path class="st1" d="M-41 240.2c246.1 0 462.5-2.2 627.7-29.7C712.4 189.6 805 156 866.5 122.8"/><path class="st1" d="M-41 242.4c247.2 0 462.9-3.4 627.8-31.3C711.7 190 804.4 156.7 866.5 123"/><path class="st1" d="M-41 244.6c248.3 0 463.3-4.7 627.9-32.9 124.2-21.3 216.8-54.4 279.6-88.4"/><path class="st1" d="M-41 246.8c249.4 0 463.6-5.9 628-34.6 123.4-21.5 216-54.4 279.5-88.8"/><path class="st1" d="M-41 249c250.5 0 464-7.2 628-36.2 122.7-21.7 215.3-54.3 279.5-89.1"/><path class="st1" d="M-41 251.2c251.6 0 464.4-8.5 628.1-37.8 122-21.9 214.5-54.3 279.4-89.4"/><path class="st1" d="M-41 253.4c252.7 0 464.8-9.7 628.2-39.4 121.2-22.1 213.7-54.3 279.3-89.8"/><path class="st1" d="M-41 255.6c253.8 0 465.3-10.6 628.3-41.1 120.5-22 212.9-54.2 279.2-90.1"/><path class="st1" d="M-41 257.7c254.9 0 465.7-11.9 628.4-42.7 119.7-22.2 212.2-54.2 279.1-90.5"/><path class="st1" d="M-41 259.9c255.9 0 466.1-13.2 628.4-44.3 119-22.5 211.4-54.2 279.1-90.8"/><path class="st1" d="M-41 262.1c257 0 466.5-14.6 628.5-45.9 118.2-22.7 210.6-54.1 279-91.1"/><path class="st1" d="M-41 264.3c258.1 0 466.9-15.9 628.6-47.6 117.5-22.9 209.9-54.1 278.9-91.5"/><path class="st1" d="M-41 266.5c446.7 0 741.4-51 907.5-141"/></g><g style="opacity:.65;clip-path:url(#SVGID_2_)"><path class="st4" d="M-68 233.1c224.5 0 313.5 48 508.2 48s357.3-74 357.3-74"/><path class="st4" d="M-68 231.8c223.7-.2 313.6 47.8 508.2 47.8 194 0 356.2-73.4 357.3-74"/><path class="st4" d="M-68 230.4C154.9 230 245.7 278 440.2 278c193.2 0 355-72.8 357.3-74.1"/><path class="st4" d="M-68 229.1c222.1-.7 313.8 47.3 508.3 47.4 192.5.1 353.8-72.2 357.2-74.1"/><path class="st4" d="M-68 227.7c221.2-.9 313.9 47 508.3 47.1 191.7.2 352.7-71.5 357.2-74.1"/><path class="st4" d="M-68 226.4c220.4-1.2 314 46.8 508.3 46.9 191 .1 351.5-71 357.2-74.2"/><path class="st4" d="M-68 225.1c219.6-1.4 314.1 46.5 508.3 46.7 190.2.1 350.4-70.4 357.2-74.2"/><path class="st4" d="M-68 223.7c218.8-1.7 314.2 46.3 508.3 46.5 189.5.1 349.2-69.8 357.2-74.3"/><path class="st4" d="M-68 222.4c218-1.9 314.3 46.1 508.4 46.3 188.8.2 348.1-69.3 357.1-74.3"/><path class="st4" d="M-68 221c217.1-2.1 314.4 45.8 508.4 46.1 188 .2 346.9-68.7 357.1-74.4"/><path class="st4" d="M-68 219.7c216.3-2.4 314.5 45.6 508.4 45.9 187.3.2 345.7-68.1 357.1-74.4"/><path class="st4" d="M-68 218.3c215.5-2.6 314.6 45.3 508.4 45.7 186.5.2 344.6-67.5 357.1-74.4"/><path class="st4" d="M-68 217c214.7-2.8 314.7 45.1 508.4 45.4 185.8.2 343.4-66.9 357.1-74.5"/><path class="st4" d="M-68 215.6c213.9-3.1 314.7 44.8 508.5 45.2 185 .3 342.3-66.3 357-74.5"/><path class="st4" d="M-68 214.3c213.1-3.3 314.8 44.6 508.5 45 184.3.3 341.1-65.7 357-74.5"/><path class="st4" d="M-68 212.9c212.2-3.5 314.9 44.3 508.5 44.8 183.5.3 340-65.1 357-74.6"/><path class="st4" d="M-68 211.6c211.4-3.8 315 44.1 508.5 44.6 182.8.3 338.8-64.5 357-74.6"/><path class="st4" d="M-68 210.2c210.6-4 315.1 43.9 508.6 44.4 182 .3 337.7-63.9 356.9-74.7"/><path class="st4" d="M-68 208.9c209.8-4.2 315.2 43.6 508.6 44.2 181.3.3 336.5-63.3 356.9-74.7"/><path class="st4" d="M-68 207.5c209-4.5 315.3 43.4 508.6 43.9 180.5.4 335.3-62.7 356.9-74.7"/><path class="st4" d="M-68 206.2c208.2-4.7 315.4 43.1 508.6 43.7 179.8.4 334.2-62.1 356.9-74.8"/><path class="st4" d="M-68 204.8c207.3-5 315.5 42.9 508.6 43.5 179 .4 333-61.5 356.9-74.8"/><path class="st4" d="M-68 203.5c206.5-5.2 315.6 42.6 508.7 43.3 178.3.4 331.9-60.9 356.8-74.9"/><path class="st4" d="M-68 202.1c205.7-5.4 315.7 42.4 508.7 43.1 177.5.4 330.7-60.4 356.8-74.9"/><path class="st4" d="M-68 200.8c204.9-5.7 315.8 42.2 508.7 42.9 176.8.5 329.6-59.8 356.8-74.9"/><path class="st4" d="M-68 199.4c204.1-5.9 315.9 41.9 508.7 42.7 176 .5 328.4-59.2 356.8-75"/><path class="st4" d="M-68 198.1c203.3-6.1 316 41.7 508.7 42.4 175.3.5 327.3-58.5 356.8-75"/><path class="st4" d="M-68 196.7c202.4-6.4 316.1 41.4 508.8 42.2 174.5.5 326.1-58 356.7-75.1"/><path class="st4" d="M-68 195.4c201.6-6.6 316.2 41.2 508.8 42 173.8.5 324.9-57.4 356.7-75.1"/><path class="st4" d="M-68 194.1c200.8-6.8 316.3 40.9 508.8 41.8 173 .6 323.8-56.8 356.7-75.1"/><path class="st4" d="M-68 192.7c200-7.1 316.4 40.7 508.8 41.6 172.3.6 322.6-56.2 356.7-75.2"/><path class="st4" d="M-68 191.4c199.2-7.3 316.5 40.4 508.9 41.4 171.5.6 321.5-55.6 356.6-75.2"/><path class="st4" d="M-68 190c198.3-7.5 316.6 40.2 508.9 41.2 170.8.6 320.3-55 356.6-75.3"/><path class="st4" d="M-68 188.7c197.5-7.8 316.7 40 508.9 41 170.1.6 319.2-54.4 356.6-75.3"/><path class="st4" d="M-68 187.3c196.7-8 316.8 39.7 508.9 40.7 169.3.7 318-53.8 356.6-75.3"/><path class="st4" d="M-68 186c195.9-8.3 316.9 39.5 508.9 40.5 168.6.7 316.8-53.2 356.6-75.4"/><path class="st4" d="M-68 184.6c195.1-8.5 317 39.2 509 40.3 167.8.7 315.7-52.6 356.5-75.4"/><path class="st4" d="M-68 183.3c194.3-8.7 317.1 39 509 40.1 167.1.7 314.5-52 356.5-75.4"/><path class="st4" d="M-68 181.9c193.4-9 317.2 38.7 509 39.9 166.3.7 313.4-51.5 356.5-75.5"/><path class="st4" d="M-68 180.6c192.6-9.2 317.3 38.5 509 39.7 165.6.8 312.2-50.9 356.5-75.5"/><path class="st4" d="M-68 179.2c191.8-9.4 317.4 38.3 509 39.5 164.8.8 311.1-50.3 356.5-75.6"/><path class="st4" d="M-68 177.9c191-9.7 317.5 38 509.1 39.2 164.1.8 309.9-49.7 356.4-75.6"/><path class="st4" d="M-68 176.5c190.2-9.9 317.6 37.8 509.1 39 163.3.8 308.8-49.1 356.4-75.6"/><path class="st4" d="M-68 175.2C121.4 165 249.7 212.7 441.1 214c162.6.8 307.6-48.5 356.4-75.7"/><path class="st4" d="M-68 173.8c188.5-10.4 317.8 37.3 509.1 38.6 161.8.8 306.4-47.9 356.4-75.7"/><path class="st4" d="M-68 172.5c187.7-10.6 317.9 37 509.2 38.4 161.1.9 305.3-47.3 356.3-75.8"/><path class="st4" d="M-68 171.1c186.9-10.8 318 36.8 509.2 38.2 160.3.9 304.1-46.7 356.3-75.8"/><path class="st4" d="M-68 169.8c186.1-11.1 318.1 36.5 509.2 38 159.6.9 303-46.1 356.3-75.8"/><path class="st4" d="M-68 168.4c185.3-11.3 318.2 36.3 509.2 37.8 158.8.9 301.8-45.5 356.3-75.9"/><path class="st4" d="M-68 167.1c184.5-11.6 318.3 36.1 509.2 37.5 158.1.9 300.7-44.9 356.3-75.9"/><path class="st4" d="M-68 165.8c183.6-11.8 318.4 35.8 509.3 37.3 157.3 1 299.5-44.3 356.2-76"/><path class="st4" d="M-68 164.4c182.8-12 318.5 35.6 509.3 37.1 156.6 1 298.3-43.7 356.2-76"/><path class="st4" d="M-68 163.1c182-12.3 318.6 35.3 509.3 36.9 155.8 1 297.2-43.1 356.2-76"/><path class="st4" d="M-68 161.7c181.2-12.5 318.7 35.1 509.3 36.7 155.1 1 296-42.6 356.2-76.1"/><path class="st4" d="M-68 160.4c180.4-12.7 318.8 34.8 509.3 36.5 154.3 1 294.9-42 356.2-76.1"/><path class="st4" d="M-68 159c179.5-13 318.9 34.6 509.4 36.3 153.6 1.1 293.7-41.4 356.1-76.2"/><path class="st4" d="M-68 157.7c178.7-13.2 319 34.4 509.4 36 152.9 1.1 292.6-40.8 356.1-76.2"/><path class="st4" d="M-68 156.3c177.9-13.4 319.1 34.1 509.4 35.8 152.1 1.1 291.4-40.2 356.1-76.2"/><path class="st4" d="M-68 155c177.1-13.7 319.2 33.9 509.4 35.6 151.4 1.1 290.3-39.6 356.1-76.3"/><path class="st4" d="M-68 153.6c176.3-13.9 319.3 33.6 509.5 35.4 150.6 1.1 289.1-39 356-76.3"/><path class="st4" d="M-68 152.3c175.5-14.1 319.4 33.4 509.5 35.2 149.9 1.2 287.9-38.4 356-76.3"/><path class="st4" d="M-68 150.9c174.6-14.4 319.5 33.1 509.5 35 149.1 1.2 286.8-37.8 356-76.4"/><path class="st4" d="M-68 149.6c173.8-14.6 319.6 32.9 509.5 34.8 148.4 1.2 285.6-37.2 356-76.4"/><path class="st4" d="M-68 148.2c173-14.9 319.7 32.6 509.5 34.5 147.6 1.2 284.5-36.6 356-76.5"/><path class="st4" d="M-68 146.9c172.2-15.1 319.8 32.4 509.6 34.3 146.9 1.2 283.3-36 355.9-76.5"/><path class="st4" d="M-68 145.5c171.4-15.3 319.9 32.2 509.6 34.1 146.1 1.3 282.2-35.4 355.9-76.5"/><path class="st4" d="M-68 144.2c170.6-15.6 320 31.9 509.6 33.9 145.4 1.3 281-34.8 355.9-76.6"/><path class="st4" d="M-68 142.8c169.7-15.8 320.1 31.7 509.6 33.7 144.6 1.3 279.9-34.2 355.9-76.6"/><path class="st4" d="M-68 141.5c168.9-16 320.2 31.4 509.6 33.5 143.9 1.3 278.7-33.7 355.9-76.7"/><path class="st4" d="M-68 140.1c168.1-16.3 320.3 31.2 509.7 33.3 143.1 1.3 277.5-33.1 355.8-76.7"/><path class="st4" d="M-68 138.8c167.3-16.5 320.4 30.9 509.7 33.1 142.4 1.3 276.4-32.5 355.8-76.7"/><path class="st4" d="M-68 137.4c166.5-16.7 320.5 30.7 509.7 32.8 141.6 1.4 275.2-31.9 355.8-76.8"/><path class="st4" d="M-68 136.1c165.7-17 320.6 30.5 509.7 32.6 140.9 1.4 274.1-31.3 355.8-76.8"/><path class="st4" d="M-68 134.8c164.8-17.2 320.7 30.2 509.7 32.4 140.1 1.4 272.9-30.7 355.8-76.9"/><path class="st4" d="M-68 133.4c164-17.4 320.8 30 509.8 32.2 139.4 1.4 271.8-30.1 355.7-76.9"/><path class="st4" d="M-68 132.1c163.2-17.7 320.9 29.7 509.8 32 138.6 1.4 270.6-29.5 355.7-76.9"/><path class="st4" d="M-68 130.7c162.4-17.9 321 29.5 509.8 31.8 137.9 1.5 269.4-28.9 355.7-77"/><path class="st4" d="M-68 129.4c161.6-18.2 321.1 29.2 509.8 31.6 137.1 1.5 268.3-28.3 355.7-77"/><path class="st4" d="M-68 128c160.7-18.4 321.2 29 509.9 31.3 136.4 1.5 267.1-27.7 355.6-77.1"/><path class="st4" d="M-68 126.7c159.9-18.6 321.3 28.7 509.9 31.1 135.6 1.5 266-27.1 355.6-77.1"/><path class="st4" d="M-68 125.3c159.1-18.9 321.4 28.5 509.9 30.9 134.9 1.5 264.8-26.5 355.6-77.1"/><path class="st4" d="M-68 124c158.3-19.1 321.5 28.3 509.9 30.7 134.2 1.6 263.7-25.9 355.6-77.2"/><path class="st4" d="M-68 122.6c157.5-19.3 321.6 28 509.9 30.5 133.4 1.6 262.5-25.3 355.6-77.2"/><path class="st4" d="M-68 121.3c156.7-19.6 321.7 27.8 510 30.3 132.7 1.6 261.4-24.8 355.5-77.2"/><path class="st4" d="M-68 119.9c155.8-19.8 321.8 27.5 510 30.1 131.9 1.6 260.2-24.2 355.5-77.3"/><path class="st4" d="M-68 118.6c155-20 321.9 27.3 510 29.9 131.2 1.6 259-23.6 355.5-77.3"/><path class="st4" d="M-68 117.2c154.2-20.3 322 27 510 29.6 130.4 1.7 257.9-23 355.5-77.4"/><path class="st4" d="M-68 115.9c153.4-20.5 322.1 26.8 510 29.4 129.7 1.7 256.7-22.4 355.5-77.4"/><path class="st4" d="M-68 114.5c152.6-20.7 322.2 26.6 510.1 29.2C571 145.4 697.6 122 797.5 66.3"/><path class="st4" d="M-68 113.2c151.8-21 322.3 26.3 510.1 29 128.2 1.7 254.4-21.2 355.4-77.5"/><path class="st4" d="M-68 111.8c150.9-21.2 322.4 26.1 510.1 28.8 127.4 1.7 253.3-20.6 355.4-77.5"/><path class="st4" d="M-68 110.5C82.1 89 254.5 136.3 442.1 139.1c126.7 1.8 252.1-20 355.4-77.6"/><path class="st4" d="M-68 109.1c149.3-21.7 322.6 25.6 510.2 28.4 125.9 1.8 250.9-19.4 355.3-77.6"/><path class="st4" d="M-68 107.8c148.5-21.9 322.7 25.3 510.2 28.1 125.2 1.8 249.8-18.8 355.3-77.6"/><path class="st4" d="M-68 106.4c147.7-22.2 322.8 25.1 510.2 27.9 124.4 1.8 248.6-18.2 355.3-77.7"/><path class="st4" d="M-68 105.1c146.9-22.4 322.9 24.8 510.2 27.7 123.7 1.8 247.5-17.6 355.3-77.7"/><path class="st4" d="M-68 103.8c146-22.6 323 24.6 510.2 27.5 122.9 1.8 246.3-17 355.3-77.8"/><path class="st4" d="M-68 102.4c145.2-22.9 323.1 24.4 510.3 27.3 122.2 1.9 245.2-16.4 355.2-77.8"/><path class="st4" d="M-68 101.1c144.4-23.1 323.2 24.1 510.3 27 121.4 1.9 244-15.9 355.2-77.8"/><path class="st4" d="M-68 99.7c143.6-23.3 323.3 23.9 510.3 26.9 120.7 1.9 242.9-15.3 355.2-77.9"/><path class="st4" d="M-68 98.4C74.8 74.8 255.4 122 442.3 125c119.9 1.9 241.7-14.7 355.2-77.9"/><path class="st4" d="M-68 97c232.5-39 571.2 112.5 865.5-51.5"/></g><g style="opacity:.43;clip-path:url(#SVGID_2_)"><path class="st6" d="M-84.5 101.8c207 40.9 287.8-5.8 485.8-5.8C673.3 96 923 258 923 258"/><path class="st6" d="M-84.5 103.1c205.6 40.5 288-6.1 485.7-6.6 270-.6 518.4 158.1 521.8 159.9"/><path class="st6" d="M-84.5 104.4c204.2 40.1 288.3-6.5 485.5-7.5 268.2-1 515.3 154.3 522 157.8"/><path class="st6" d="M-84.5 105.7c202.8 39.7 288.5-6.8 485.3-8.3C667.1 95.8 912.9 247.8 923 253.1"/><path class="st6" d="M-84.5 107c201.4 39.2 288.8-7.2 485.1-9.2 264.4-2 509 146.6 522.4 153.7"/><path class="st6" d="M-84.5 108.3c199.9 38.8 289.1-7.5 484.9-10.1C662.9 95.7 906.2 241 923 249.9"/><path class="st6" d="M-84.5 109.6C114 148 204.8 101.8 400.2 98.7c260.6-3 502.7 138.9 522.8 149.5"/><path class="st6" d="M-84.5 110.9c197.1 38 289.6-8.7 484.5-11.8C658.7 95 899.5 234.2 923 246.5"/><path class="st6" d="M-84.5 112.3c195.7 37.6 289.8-9.1 484.3-12.6C656.6 95 896.1 230.9 923 245"/><path class="st6" d="M-84.5 113.6c194.3 37.1 290.1-9.5 484.1-13.5C654.5 94.8 892.8 227.5 923 243.4"/><path class="st6" d="M-84.5 114.9c192.9 36.7 290.4-9.9 483.9-14.3 253-5.8 490 123.5 523.6 141.2"/><path class="st6" d="M-84.5 116.2C107 152.5 206.1 105.9 399.2 101 650.4 94.6 886 220.7 923 240.1"/><path class="st6" d="M-84.5 117.5c190.1 35.9 290.9-10.7 483.5-16 249.3-6.9 483.6 115.9 524 137"/><path class="st6" d="M-84.5 118.8c188.7 35.5 291.1-11.1 483.3-16.9 247.4-7.5 480.5 112 524.2 134.9"/><path class="st6" d="M-84.5 120.1c187.3 35 291.4-11.4 483.1-17.7C644.1 94.3 875.9 210.5 923 235.2"/><path class="st6" d="M-84.5 121.4c185.8 34.6 291.6-11.8 482.9-18.6C642 94.2 872.6 207.1 923 233.6"/><path class="st6" d="M-84.5 122.7c184.4 34.2 291.9-12.2 482.8-19.4C639.9 94.1 869.2 203.8 923 232"/><path class="st6" d="M-84.5 124c183 33.8 292.2-12.6 482.6-20.3C637.8 94 865.9 200.4 923 230.3"/><path class="st6" d="M-84.5 125.3c181.6 33.3 292.4-13 482.4-21.1C635.8 94 862.5 197 923 228.7"/><path class="st6" d="M-84.5 126.6c180.2 32.9 292.7-13.4 482.2-22C633.7 93.8 859.2 193.5 923 227"/><path class="st6" d="M-84.5 128c178.8 32.5 292.9-13.7 482-22.9C631.6 93.8 855.8 190.2 923 225.5"/><path class="st6" d="M-84.5 129.3c177.4 32.1 293.2-14.1 481.8-23.7C629.5 93.7 852.4 186.8 923 223.8"/><path class="st6" d="M-84.5 130.6c176 31.7 293.4-14.5 481.6-24.6 230.3-12.4 452 77.4 525.9 116.2"/><path class="st6" d="M-84.5 131.9c174.6 31.2 293.7-14.8 481.4-25.4C625.3 93.6 845.7 180 923 220.6"/><path class="st6" d="M-84.5 133.2c173.2 30.8 294-15.2 481.2-26.3 226.5-13.4 445.6 69.7 526.3 112"/><path class="st6" d="M-84.5 134.5c171.7 30.4 294.2-15.6 481-27.1C621.1 93.5 839 173.2 923 217.3"/><path class="st6" d="M-84.5 135.8c170.3 30 294.5-15.9 480.8-28C619 93.4 835.6 169.9 923 215.7"/><path class="st6" d="M-84.5 137.1c168.9 29.6 294.7-16.3 480.6-28.8C617 93.4 832.3 166.5 923 214.1"/><path class="st6" d="M-84.5 138.4c167.5 29.1 295-16.6 480.4-29.7C614.8 93.3 828.9 163 923 212.4"/><path class="st6" d="M-84.5 139.7c166.1 28.7 295.2-17 480.2-30.5 217-15.9 429.8 50.5 527.3 101.6"/><path class="st6" d="M-84.5 141c164.7 28.3 295.5-17.3 480-31.4 215.2-16.4 426.6 46.6 527.5 99.5"/><path class="st6" d="M-84.5 142.3c163.3 27.9 295.8-17.7 479.8-32.2 213.3-16.9 423.5 42.8 527.7 97.4"/><path class="st6" d="M-84.5 143.7c161.9 27.5 296-18 479.7-33.1 211.4-17.4 420.3 39 527.8 95.4"/><path class="st6" d="M-84.5 145C76 172 211.8 126.6 395 111c209.5-17.9 417.1 35.1 528 93.3"/><path class="st6" d="M-84.5 146.3c159.1 26.6 296.5-18.7 479.3-34.8 207.6-18.3 414 31.3 528.2 91.2"/><path class="st6" d="M-84.5 147.6c157.6 26.2 296.8-19 479.1-35.7C600.3 93.1 805.4 139.3 923 201"/><path class="st6" d="M-84.5 148.9c156.2 25.8 297.1-19.3 478.9-36.5C598.2 93.1 802 136 923 199.4"/><path class="st6" d="M-84.5 150.2c154.8 25.4 297.3-19.6 478.7-37.4 201.9-19.7 404.5 19.7 528.8 85"/><path class="st6" d="M-84.5 151.5c153.4 24.9 297.6-19.9 478.5-38.2 200-20.2 401.3 15.9 529 82.9"/><path class="st6" d="M-84.5 152.8c152 24.5 297.8-20.3 478.3-39.1 198.1-20.7 398.1 12 529.2 80.8"/><path class="st6" d="M-84.5 154.1c150.6 24.1 298.1-20.6 478.1-39.9 196.2-21.1 394.9 8.2 529.4 78.7"/><path class="st6" d="M-84.5 155.4c149.2 23.7 298.4-20.9 477.9-40.8C587.8 93.1 785.2 119 923 191.3"/><path class="st6" d="M-84.5 156.7c147.8 23.3 298.6-21.2 477.7-41.6 192.5-22 388.6.5 529.8 74.5"/><path class="st6" d="M-84.5 158c146.4 22.8 298.9-21.4 477.5-42.5 190.6-22.4 385.4-3.3 530 72.5"/><path class="st6" d="M-84.5 159.3c145 22.4 299.2-21.7 477.3-43.3 188.7-22.9 382.3-7.2 530.2 70.4"/><path class="st6" d="M-84.5 160.7c143.5 22 299.4-22 477.1-44.2 186.8-23.3 379.1-11 530.4 68.3"/><path class="st6" d="M-84.5 162c142.1 21.6 299.7-22.3 476.9-45 185-23.8 376-15 530.6 66.1"/><path class="st6" d="M-84.5 163.3c140.7 21.1 300-22.6 476.8-45.9C575.3 93.2 765 98.7 923 181.5"/><path class="st6" d="M-84.5 164.6c139.3 20.7 300.3-22.6 476.6-46.7 181.2-24.3 369.6-22.6 530.9 62"/><path class="st6" d="M-84.5 165.9C53.4 186.2 216 143 391.9 118.3c179.3-24.8 366.4-26.4 531.1 60"/><path class="st6" d="M-84.5 167.2C52 187.1 216.3 144 391.7 118.7 569.1 93.5 754.9 88.5 923 176.6"/><path class="st6" d="M-84.5 168.5c270.6 39 665.3-173 1007.5 6.5"/></g></svg>